<?xml version="1.0" encoding="UTF-8" standalone="no"?>
<svg
   xmlns:dc="http://purl.org/dc/elements/1.1/"
   xmlns:cc="http://creativecommons.org/ns#"
   xmlns:rdf="http://www.w3.org/1999/02/22-rdf-syntax-ns#"
   xmlns:svg="http://www.w3.org/2000/svg"
   xmlns="http://www.w3.org/2000/svg"
   xmlns:sodipodi="http://sodipodi.sourceforge.net/DTD/sodipodi-0.dtd"
   xmlns:inkscape="http://www.inkscape.org/namespaces/inkscape"
   sodipodi:docname="news_viz_logo_eye.svg"
   inkscape:version="1.0.1 (3bc2e813f5, 2020-09-07)"
   id="svg1591"
   version="1.1"
   viewBox="0 0 210 210"
   height="210mm"
   width="210mm">
  <defs
     id="defs1585" />
  <sodipodi:namedview
     inkscape:window-maximized="1"
     inkscape:window-y="18"
     inkscape:window-x="0"
     inkscape:window-height="1040"
     inkscape:window-width="1916"
     showgrid="false"
     inkscape:document-rotation="0"
     inkscape:current-layer="g1526"
     inkscape:document-units="mm"
     inkscape:cy="352.68396"
     inkscape:cx="397.01979"
     inkscape:zoom="0.7"
     inkscape:pageshadow="2"
     inkscape:pageopacity="0.0"
     borderopacity="1.0"
     bordercolor="#666666"
     pagecolor="#ffffff"
     id="base" />
  <metadata
     id="metadata1588">
    <rdf:RDF>
      <cc:Work
         rdf:about="">
        <dc:format>image/svg+xml</dc:format>
        <dc:type
           rdf:resource="http://purl.org/dc/dcmitype/StillImage" />
        <dc:title></dc:title>
      </cc:Work>
    </rdf:RDF>
  </metadata>
  <g
     id="layer1"
     inkscape:groupmode="layer"
     inkscape:label="Layer 1">
    <g
       id="g1526"
       transform="matrix(3.3401632,0,0,3.3401632,900.94073,638.86884)"
       inkscape:export-xdpi="198.1198"
       inkscape:export-ydpi="198.1198">
      <path
         style="color:#000000;font-style:normal;font-variant:normal;font-weight:normal;font-stretch:normal;font-size:medium;line-height:normal;font-family:sans-serif;font-variant-ligatures:normal;font-variant-position:normal;font-variant-caps:normal;font-variant-numeric:normal;font-variant-alternates:normal;font-variant-east-asian:normal;font-feature-settings:normal;font-variation-settings:normal;text-indent:0;text-align:start;text-decoration:none;text-decoration-line:none;text-decoration-style:solid;text-decoration-color:#000000;letter-spacing:normal;word-spacing:normal;text-transform:none;writing-mode:lr-tb;direction:ltr;text-orientation:mixed;dominant-baseline:auto;baseline-shift:baseline;text-anchor:start;white-space:normal;shape-padding:0;shape-margin:0;inline-size:0;clip-rule:nonzero;display:inline;overflow:visible;visibility:visible;opacity:1;isolation:auto;mix-blend-mode:normal;color-interpolation:sRGB;color-interpolation-filters:linearRGB;solid-color:#000000;solid-opacity:1;vector-effect:none;fill:#ee124e;fill-opacity:1;fill-rule:evenodd;stroke:none;stroke-width:0.775183;stroke-linecap:round;stroke-linejoin:miter;stroke-miterlimit:4;stroke-dasharray:none;stroke-dashoffset:0;stroke-opacity:1;color-rendering:auto;image-rendering:auto;shape-rendering:auto;text-rendering:auto;enable-background:accumulate;stop-color:#000000;stop-opacity:1"
         d="m -259.56578,-173.23099 0.54982,0.8186 c 0,0 0.54185,-1.07715 1.43621,-2.58112 0.0136,-0.72202 -0.0937,-1.22151 -0.37304,-0.96814 -0.39445,0.35772 -1.06233,1.81005 -1.61299,2.73066 z m 4.87867,-6.07696 c 0.9892,-1.28773 2.08162,-2.51125 3.20334,-3.41667 2.70695,-2.1174 8.36208,-4.57556 13.01563,-4.69141 4.71539,-0.11738 7.13245,0.94783 10.81641,2.87305 6.58253,3.46149 11.22035,10.401 11.89062,17.80859 v 0.002 0.002 c 0.29236,2.88654 -0.12522,5.80039 -0.94483,8.60028 l 0.81824,-0.0353 c 0.79257,-2.79468 1.1935,-5.71711 0.89815,-8.63942 -0.6952,-7.68303 -5.47402,-14.83391 -12.30079,-18.42383 -3.70622,-1.93692 -6.35486,-3.08343 -11.19726,-2.96289 -4.90501,0.12211 -10.59011,2.60114 -13.47461,4.85743 l -0.002,0.002 c 0,0 3.88103,-3.25064 -0.002,0.002 -0.99466,0.83319 -1.97841,1.90219 -2.89156,3.03152 m 37.36033,24.53107 c -0.72237,1.80603 -1.35314,3.63559 -2.46289,5.14258 -3.3e-4,4.6e-4 3.4e-4,0.001 0,0.002 -0.49574,0.64847 -1.1071,1.20053 -1.76317,1.72759 l 0.0142,0.98142 c 0.84796,-0.6526 1.68717,-1.35205 2.368,-2.24412 l 0.002,-0.002 0.002,-0.002 c 1.20546,-1.63632 1.84872,-3.54043 2.5625,-5.32422 l 0.002,-0.004 0.002,-0.004 m -7.59195,8.67429 c -1.49336,1.27774 -2.74684,2.75227 -4.24018,3.88259 l -0.004,0.004 -0.004,0.004 c -0.70457,0.56713 -1.52229,0.98359 -2.39453,1.15235 -1.73735,0.32643 -3.55409,0.005 -5.29102,-0.50391 l -0.004,-0.002 h -0.006 c -1.10987,-0.29674 -2.2314,-0.69354 -3.42969,-0.89453 l -0.008,-0.002 h -0.006 c -1.4908,-0.19302 -3.15603,0.30356 -4.07812,1.60938 -5.6e-4,7.8e-4 -10e-4,10e-4 -0.002,0.002 -2.14871,2.87301 -3.34695,6.24111 -4.72265,9.41797 l -0.0117,0.0273 -0.008,0.0293 c -0.11792,0.45845 -0.91977,0.60864 -1.21289,0.23828 -0.91026,-2.46914 -1.36229,-5.09922 -1.9375,-7.7207 l -0.002,-0.01 c -0.66969,-3.47894 -2.0283,-6.74878 -3.46094,-9.92383 l -0.002,-0.002 c -1.51409,-3.41957 -3.12297,-6.78583 -4.31641,-10.29492 l -0.004,-0.006 -0.002,-0.006 c -1.00668,-2.66177 -1.26745,-6.13341 -0.73632,-8.92773 0.0713,-0.57475 -0.5902,-1.28696 -0.75843,-0.0863 v 4e-5 c -0.56101,2.95153 -0.29832,6.45666 0.76878,9.28189 6.9e-4,0.002 0.001,0.004 0.002,0.006 1.21303,3.56365 2.83336,6.94708 4.33985,10.34961 l 0.002,0.002 c 1.42777,3.16414 2.75883,6.38329 3.4082,9.76367 l 0.002,0.004 v 0.006 c 0.57638,2.62533 1.02543,5.32757 1.99023,7.91406 l 0.0176,0.0469 0.0273,0.0391 c 0.68415,0.97997 2.33041,0.67243 2.62696,-0.48047 l -0.0195,0.0586 c 1.39066,-3.2114 2.57655,-6.51995 4.63672,-9.27148 l 0.004,-0.004 0.002,-0.004 c 0.71729,-1.01751 2.09983,-1.45063 3.34766,-1.28907 1.10536,0.18725 2.20063,0.56938 3.34375,0.875 1.78929,0.52321 3.72609,0.8809 5.64648,0.51954 h 0.002 c 1.01321,-0.19603 1.93693,-0.67423 2.72265,-1.30469 l 0.002,-0.002 c 1.78219,-1.34952 3.16165,-3.06173 4.82617,-4.36132 l 0.002,-0.002 0.004,-0.002"
         id="path1986"
         sodipodi:nodetypes="cccscccccccccccccccsccsccccccccccccccccccccscccccccccccccccsccccccccccccccccccccccc" />
      <path
         sodipodi:nodetypes="cccccccccc"
         id="path1094-3-6"
         d="m -238.56681,-151.2172 -0.38898,8.41856 m 0,0 c 2.41258,-0.42943 5.40218,-2.17932 6.92285,-4.13605 1.67222,-2.22661 2.9687,-4.71958 3.99214,-7.30368 0.96055,-2.60266 1.30768,-5.39146 1.32104,-8.15413 0.13351,-3.65939 -0.086,-7.36695 -0.90279,-10.94167 m -0.92322,-3.23522 c -1.25378,-3.42258 -3.23687,-6.6495 -6.05968,-8.99678 -0.98735,-0.7862 -2.09515,-1.81497 -3.40861,-2.19274"
         style="fill:none;stroke:#ee124e;stroke-width:0.192339;stroke-linecap:butt;stroke-linejoin:miter;stroke-miterlimit:4;stroke-dasharray:none;stroke-opacity:1" />
      <path
         style="fill:none;stroke:#ee124e;stroke-width:0.192339;stroke-linecap:butt;stroke-linejoin:miter;stroke-miterlimit:4;stroke-dasharray:none;stroke-opacity:1"
         d="m -238.47917,-187.80372 h -5e-5 c -3.10839,1.76389 -5.01551,3.43956 -7.70448,7.25824 -0.70435,1.00026 -1.22827,2.27145 -1.62245,3.64786 m -1.71947,12.45839 c -0.11164,0.77372 -0.18015,1.55186 -0.21073,2.33241 m 3.26323,15.88878 c 0.0432,0.0896 0.0873,0.17879 0.13233,0.26758 0.63501,0.75782 1.67597,0.94265 2.60458,1.00404 1.80476,0.11927 3.47028,1.69425 4.78042,2.14778 m 0.18571,-5.07919 c 0.18013,-2.68299 0.27645,-5.36899 0.33174,-8.05629 m 0.0735,-6.09664 c 0.005,-0.75752 0.009,-1.51504 0.0138,-2.27252"
         id="path1098-6-6"
         sodipodi:nodetypes="ccscccccsccccc" />
      <path
         style="fill:none;stroke:#ee124e;stroke-width:0.192339;stroke-linecap:butt;stroke-linejoin:miter;stroke-miterlimit:4;stroke-dasharray:none;stroke-opacity:1"
         d="m -230.14117,-164.27357 c -1.68569,0 -3.78636,-1.51048 -5.74667,-1.83406 m -3.95739,-0.39266 h -4e-5 c -1.59171,0.21659 -2.83957,1.33688 -3.9677,2.41403 -1.09109,1.04178 -2.1272,2.17993 -3.30959,3.12354 m -7.76187,-0.52635 c -1.60737,-0.99625 -3.17281,-2.16555 -4.80872,-2.65336 -0.36376,-0.10445 -0.73246,-0.20282 -1.11176,-0.22683 -0.33227,0.14832 -0.32898,0.68357 -0.0182,0.85377 1.44785,1.58969 2.71204,3.32427 3.95851,5.07269 m 14.68661,3.00061 c 0.71904,-0.91575 1.48082,-1.79327 2.37371,-2.55449 0.13614,-0.0888 0.2779,-0.16491 0.4239,-0.22888 m 3.76758,0.67057 c 1.12678,0.8543 2.25696,1.71127 3.43205,2.49929 m 2.80702,1.44115 c 1.16026,0.15065 2.35612,-0.0933 3.4556,-0.46572 0.35336,-0.12846 0.69729,-0.2754 1.03262,-0.43821 m 3.15148,-2.10531 c 0.6212,-0.52115 1.2155,-1.07521 1.79151,-1.63564 1.5987,-1.58123 3.05872,-3.30095 4.40271,-5.10141"
         id="path1100-0-9"
         sodipodi:nodetypes="ccccsccccccccccccccccc" />
      <path
         sodipodi:nodetypes="ccccccccccccccscccccccc"
         id="path1102-6-6"
         d="m -245.6076,-159.97179 c 0.13401,-0.0902 0.26458,-0.18487 0.39127,-0.28343 1.92353,-1.31641 3.70083,-2.92407 5.91246,-3.75204 1.8208,-0.55671 3.74529,-0.35589 5.61966,-0.42293 6.24278,-0.048 12.18442,-0.19206 18.42718,-0.2401 -0.17853,-0.96373 -0.81467,-2.07577 -1.31296,-2.89486 m -8.83561,-6.67106 c -0.86085,-0.3029 -0.96771,-0.30991 -1.8369,-0.57639 m -2.84639,-0.72964 c -2.86839,-0.60028 -5.8188,-0.83522 -8.74393,-0.83202 -0.45433,-0.005 -0.90865,-9e-5 -1.36297,0.002 l -9e-5,4e-5 c -1.30151,0.0599 -2.56501,0.39385 -3.7417,0.93023 m -2.3646,1.42839 c -0.43514,0.33367 -0.84852,0.69447 -1.23642,1.07698 -0.5474,0.53978 -1.1124,1.07234 -1.70186,1.57635 m -3.27301,2.22878 c -0.33708,0.16732 -0.68271,0.31926 -1.03767,0.45337 -0.32794,0.1329 -0.66005,0.25344 -0.99489,0.36585 m -4.79175,1.50259 c -0.79276,0.42749 -1.1943,0.782 -1.48374,1.42007 -0.15038,0.32408 -0.31022,1.08571 0.0167,1.02035 2.14077,0.24895 4.1351,1.22549 5.92039,2.88019"
         style="fill:none;stroke:#ee124e;stroke-width:0.192339;stroke-linecap:butt;stroke-linejoin:miter;stroke-miterlimit:4;stroke-dasharray:none;stroke-opacity:1" />
      <path
         sodipodi:nodetypes="cccsccccccccc"
         id="path1104-2-1"
         d="m -238.41365,-172.58969 c 0.0525,-4.9772 0.0995,-9.95444 0.14386,-14.93171 -0.0394,-0.17755 -0.2249,-0.32526 -0.40981,-0.2937 -3.82893,1.04502 -6.59937,2.3863 -9.98348,5.51881 -2.8806,2.66643 -4.72152,5.58086 -5.85262,8.62527 m -1.6007,9.30034 c -0.0325,1.31007 0.005,2.61475 0.23205,3.88632 m 4.02643,11.87603 c 0.85186,2.15898 1.70619,4.31723 2.46967,6.50733 l 0.7411,2.02907 c 0.4909,0.54828 1.45541,0.44069 1.88058,-0.13433 1.34082,-1.12009 2.5287,-2.52896 4.2188,-3.13279 1.28845,-0.5947 2.6577,0.54496 3.59196,0.54041"
         style="fill:none;stroke:#ee124e;stroke-width:0.192339;stroke-linecap:butt;stroke-linejoin:miter;stroke-miterlimit:4;stroke-dasharray:none;stroke-opacity:1" />
      <path
         style="fill:none;stroke:#ee124e;stroke-width:0.192339;stroke-linecap:butt;stroke-linejoin:miter;stroke-miterlimit:4;stroke-dasharray:none;stroke-opacity:1"
         d="m -238.62961,-142.61726 c 2.10562,0.40076 5.5544,0.15952 7.49711,-0.74 2.23299,-1.03392 3.5369,-3.32971 5.17592,-5.11173 0.33458,-0.38329 0.69006,-0.75244 1.04902,-1.1198 m 2.89276,-3.67398 c 0.86773,-1.93164 1.33396,-4.01102 1.77322,-6.07323 0.29837,-1.54825 0.47838,-3.12648 0.52334,-4.7077 m -0.88899,-7.49919 c -0.11753,-0.41616 -0.24716,-0.82932 -0.38924,-1.23892 -0.19821,-0.58357 -0.42086,-1.1592 -0.66699,-1.72482 m -1.05918,-2.11965 c -1.58302,-2.78806 -3.76639,-5.23484 -6.41446,-7.05161 -2.56201,-1.83509 -5.81597,-3.63399 -8.87727,-4.08102"
         id="path1106-6-8"
         sodipodi:nodetypes="csccccccccccc" />
      <g
         style="font-style:normal;font-weight:normal;font-size:21.9617px;line-height:1.25;font-family:sans-serif;letter-spacing:0px;word-spacing:0px;fill:#ffffff;fill-opacity:1;stroke:#ee124e;stroke-width:1.08176;stroke-miterlimit:4;stroke-dasharray:none;stroke-opacity:1"
         id="text1124-1-5"
         transform="scale(0.95052191,1.0520536)"
         aria-label="News">
        <g
           style="opacity:1"
           id="g1684">
          <path
             id="path1688"
             d="M -281.10156 -172.36328 L -281.10156 -155.66797 L -276.80273 -155.66797 L -276.80273 -164.55664 L -271.38477 -155.66797 L -267.32227 -155.66797 L -267.32227 -156.20898 L -267.32227 -172.36328 L -271.61133 -172.36328 L -271.61133 -163.45312 L -277.03906 -172.36328 L -281.10156 -172.36328 z M -280.01953 -171.28125 L -277.64844 -171.28125 L -270.5293 -159.60156 L -270.5293 -171.28125 L -268.4043 -171.28125 L -268.4043 -156.75 L -270.77734 -156.75 L -277.88477 -168.4082 L -277.88477 -156.75 L -280.01953 -156.75 L -280.01953 -171.28125 z "
             style="color:#000000;font-style:normal;font-variant:normal;font-weight:bold;font-stretch:normal;font-size:medium;line-height:1.25;font-family:Roboto;-inkscape-font-specification:'Roboto Bold';font-variant-ligatures:normal;font-variant-position:normal;font-variant-caps:normal;font-variant-numeric:normal;font-variant-alternates:normal;font-variant-east-asian:normal;font-feature-settings:normal;font-variation-settings:normal;text-indent:0;text-align:start;text-decoration:none;text-decoration-line:none;text-decoration-style:solid;text-decoration-color:#000000;letter-spacing:0px;word-spacing:0px;text-transform:none;writing-mode:lr-tb;direction:ltr;text-orientation:mixed;dominant-baseline:auto;baseline-shift:baseline;text-anchor:start;white-space:normal;shape-padding:0;shape-margin:0;inline-size:0;clip-rule:nonzero;display:inline;overflow:visible;visibility:visible;isolation:auto;mix-blend-mode:normal;color-interpolation:sRGB;color-interpolation-filters:linearRGB;solid-color:#000000;solid-opacity:1;vector-effect:none;fill:#ee124e;fill-opacity:1;fill-rule:nonzero;stroke:none;stroke-width:1.08176;stroke-linecap:butt;stroke-linejoin:miter;stroke-miterlimit:4;stroke-dasharray:none;stroke-dashoffset:0;stroke-opacity:1.0;color-rendering:auto;image-rendering:auto;shape-rendering:auto;text-rendering:auto;enable-background:accumulate;stop-color:#000000;stop-opacity:1;" />
        </g>
        <g
           style="opacity:1"
           id="g1690">
          <path
             id="path1694"
             d="M -260.26172 -168.56641 C -261.40505 -168.56641 -262.45469 -168.29129 -263.37109 -167.73828 C -264.28338 -167.19091 -264.99568 -166.39333 -265.48633 -165.38867 C -265.97634 -164.3924 -266.2168 -163.26553 -266.2168 -162.03125 L -266.2168 -161.73047 C -266.2168 -159.88271 -265.62938 -158.32257 -264.45703 -157.17383 L -264.45508 -157.17188 C -263.28027 -156.0284 -261.73003 -155.45312 -259.91797 -155.45312 C -258.88475 -155.45313 -257.92382 -155.64951 -257.05469 -156.04883 L -257.05273 -156.05078 L -257.05078 -156.05078 C -256.183 -156.45731 -255.47187 -157.03644 -254.95117 -157.77344 L -254.70312 -158.125 L -256.78906 -160.46094 L -254.60547 -160.46094 L -254.60547 -162.26758 C -254.60547 -164.19355 -255.09212 -165.7663 -256.11719 -166.88867 C -257.13049 -168.00569 -258.56095 -168.56641 -260.26172 -168.56641 z M -260.26172 -167.48438 C -258.78834 -167.48438 -257.72248 -167.04681 -256.91992 -166.16211 L -256.91797 -166.16016 C -256.11412 -165.28094 -255.6875 -164.01507 -255.6875 -162.26758 L -255.6875 -161.54297 L -263.15234 -161.54297 L -263.07031 -160.93164 C -262.95675 -160.07184 -262.59497 -159.32506 -261.99805 -158.7793 L -261.99609 -158.77734 C -261.38721 -158.22849 -260.59378 -157.95117 -259.71484 -157.95117 C -258.62609 -157.95117 -257.72173 -158.38523 -256.98828 -159.05859 L -256.16016 -158.13281 C -256.53282 -157.70743 -256.92842 -157.30433 -257.50586 -157.0332 C -257.50642 -157.03295 -257.50725 -157.03346 -257.50781 -157.0332 C -257.50873 -157.03277 -257.50885 -157.03168 -257.50977 -157.03125 C -258.22676 -156.70251 -259.0225 -156.53516 -259.91797 -156.53516 C -261.50774 -156.53516 -262.72965 -157.00259 -263.69922 -157.94531 L -263.70117 -157.94727 C -264.6579 -158.88577 -265.13477 -160.10494 -265.13477 -161.73047 L -265.13477 -162.03125 C -265.13477 -163.12685 -264.92584 -164.08061 -264.51562 -164.91406 C -264.1055 -165.75384 -263.54644 -166.37331 -262.81445 -166.8125 L -262.8125 -166.8125 C -262.07034 -167.26036 -261.2345 -167.48438 -260.26172 -167.48438 z M -260.27148 -166.05859 C -261.00789 -166.05859 -261.6863 -165.78312 -262.16992 -165.26367 L -262.16992 -165.26172 L -262.17188 -165.25977 C -262.64641 -164.74047 -262.9217 -164.03446 -263.03906 -163.18945 L -263.12305 -162.57422 L -257.65039 -162.57422 L -257.65039 -163.36719 L -257.65039 -163.37305 C -257.66655 -164.15024 -257.88833 -164.83336 -258.35742 -165.32227 C -258.82844 -165.82035 -259.51085 -166.05859 -260.27148 -166.05859 z M -260.27148 -164.97656 C -259.71764 -164.97656 -259.38639 -164.83657 -259.14258 -164.57812 L -259.14062 -164.57617 L -259.13867 -164.57422 C -258.95523 -164.38346 -258.8928 -164.02401 -258.83398 -163.65625 L -261.7207 -163.65625 C -261.61259 -163.96421 -261.54054 -164.34572 -261.375 -164.52734 C -261.087 -164.83579 -260.76365 -164.97656 -260.27148 -164.97656 z M -261.69922 -160.46094 L -257.08008 -160.46094 L -257.3418 -160.12305 C -257.9186 -159.38057 -258.6516 -159.0332 -259.71484 -159.0332 C -260.37909 -159.0332 -260.86363 -159.21302 -261.26953 -159.57812 L -261.27148 -159.58008 C -261.50913 -159.79781 -261.57347 -160.15596 -261.69922 -160.46094 z "
             style="color:#000000;font-style:normal;font-variant:normal;font-weight:bold;font-stretch:normal;font-size:medium;line-height:1.25;font-family:Roboto;-inkscape-font-specification:'Roboto Bold';font-variant-ligatures:normal;font-variant-position:normal;font-variant-caps:normal;font-variant-numeric:normal;font-variant-alternates:normal;font-variant-east-asian:normal;font-feature-settings:normal;font-variation-settings:normal;text-indent:0;text-align:start;text-decoration:none;text-decoration-line:none;text-decoration-style:solid;text-decoration-color:#000000;letter-spacing:0px;word-spacing:0px;text-transform:none;writing-mode:lr-tb;direction:ltr;text-orientation:mixed;dominant-baseline:auto;baseline-shift:baseline;text-anchor:start;white-space:normal;shape-padding:0;shape-margin:0;inline-size:0;clip-rule:nonzero;display:inline;overflow:visible;visibility:visible;isolation:auto;mix-blend-mode:normal;color-interpolation:sRGB;color-interpolation-filters:linearRGB;solid-color:#000000;solid-opacity:1;vector-effect:none;fill:#ee124e;fill-opacity:1;fill-rule:nonzero;stroke:none;stroke-width:1.08176;stroke-linecap:butt;stroke-linejoin:miter;stroke-miterlimit:4;stroke-dasharray:none;stroke-dashoffset:0;stroke-opacity:1.0;color-rendering:auto;image-rendering:auto;shape-rendering:auto;text-rendering:auto;enable-background:accumulate;stop-color:#000000;stop-opacity:1;" />
        </g>
        <g
           style="opacity:1"
           id="g1696">
          <path
             id="path1700"
             d="M -254.97266 -168.35156 L -251.73828 -155.66797 L -248.33203 -155.66797 L -246.53516 -161.63672 L -244.73828 -155.66797 L -241.32227 -155.66797 L -238.08594 -168.35156 L -242.21484 -168.35156 L -243.38281 -162.6875 L -245.00195 -168.35156 L -248.05664 -168.35156 L -249.68555 -162.69531 L -250.84375 -168.35156 L -254.97266 -168.35156 z M -253.58203 -167.27148 L -251.72656 -167.27148 L -250.30273 -160.32617 L -249.25391 -160.28516 L -247.24414 -167.27148 L -245.81641 -167.27148 L -243.81641 -160.27344 L -242.76758 -160.31445 L -241.33398 -167.27148 L -239.47852 -167.27148 L -242.16211 -156.75 L -243.93555 -156.75 L -246.53516 -165.38867 L -249.13477 -156.75 L -250.89844 -156.75 L -253.58203 -167.27148 z "
             style="color:#000000;font-style:normal;font-variant:normal;font-weight:bold;font-stretch:normal;font-size:medium;line-height:1.25;font-family:Roboto;-inkscape-font-specification:'Roboto Bold';font-variant-ligatures:normal;font-variant-position:normal;font-variant-caps:normal;font-variant-numeric:normal;font-variant-alternates:normal;font-variant-east-asian:normal;font-feature-settings:normal;font-variation-settings:normal;text-indent:0;text-align:start;text-decoration:none;text-decoration-line:none;text-decoration-style:solid;text-decoration-color:#000000;letter-spacing:0px;word-spacing:0px;text-transform:none;writing-mode:lr-tb;direction:ltr;text-orientation:mixed;dominant-baseline:auto;baseline-shift:baseline;text-anchor:start;white-space:normal;shape-padding:0;shape-margin:0;inline-size:0;clip-rule:nonzero;display:inline;overflow:visible;visibility:visible;isolation:auto;mix-blend-mode:normal;color-interpolation:sRGB;color-interpolation-filters:linearRGB;solid-color:#000000;solid-opacity:1;vector-effect:none;fill:#ee124e;fill-opacity:1;fill-rule:nonzero;stroke:none;stroke-width:1.08176;stroke-linecap:butt;stroke-linejoin:miter;stroke-miterlimit:4;stroke-dasharray:none;stroke-dashoffset:0;stroke-opacity:1.0;color-rendering:auto;image-rendering:auto;shape-rendering:auto;text-rendering:auto;enable-background:accumulate;stop-color:#000000;stop-opacity:1;" />
        </g>
        <g
           style="opacity:1"
           id="g1702">
          <path
             id="path1706"
             d="M -232.8418 -168.56641 C -234.31216 -168.56641 -235.56898 -168.18882 -236.53711 -167.40625 C -237.4907 -166.63696 -238.01367 -165.59055 -238.01367 -164.41211 C -238.01367 -163.38833 -237.58104 -162.46985 -236.78906 -161.79688 C -235.99708 -161.1239 -234.87914 -160.66611 -233.44531 -160.36523 L -233.44336 -160.36523 C -232.64362 -160.19977 -232.08308 -160.00232 -231.81055 -159.83984 L -231.80469 -159.83789 L -231.79883 -159.83398 C -231.53876 -159.68677 -231.50586 -159.61462 -231.50586 -159.41602 C -231.50586 -159.20451 -231.55163 -159.10629 -231.74609 -158.96094 C -231.74639 -158.96072 -231.74775 -158.96116 -231.74805 -158.96094 C -231.91164 -158.84069 -232.24056 -158.73437 -232.76562 -158.73438 C -233.31883 -158.73438 -233.69402 -158.85709 -233.95703 -159.06055 C -234.21152 -159.25742 -234.33694 -159.49394 -234.35938 -159.92578 L -234.38672 -160.43945 L -238.37891 -160.43945 L -238.37891 -159.89844 C -238.37891 -159.08745 -238.12214 -158.31072 -237.63672 -157.62305 L -237.63477 -157.62109 C -237.148 -156.93962 -236.47649 -156.40322 -235.6543 -156.01953 L -235.65234 -156.01758 L -235.64844 -156.01562 C -234.81146 -155.63662 -233.86598 -155.45312 -232.83008 -155.45312 C -231.31151 -155.45312 -230.01578 -155.80201 -228.99805 -156.53125 L -228.99609 -156.53125 C -227.97658 -157.2698 -227.41016 -158.3302 -227.41016 -159.54297 C -227.41016 -161.22226 -228.44873 -162.52189 -230.2207 -163.17188 C -230.78691 -163.37847 -231.46385 -163.55499 -232.25586 -163.70898 L -232.25 -163.70898 C -232.9883 -163.85938 -233.4939 -164.04344 -233.71484 -164.18164 C -233.91705 -164.31802 -233.95117 -164.39106 -233.95117 -164.5625 C -233.95117 -164.78569 -233.8992 -164.89605 -233.71875 -165.04492 C -233.55738 -165.17805 -233.29193 -165.27539 -232.85156 -165.27539 C -232.33086 -165.27539 -232.05067 -165.15603 -231.89844 -165 L -231.89648 -164.99805 L -231.89453 -164.99414 C -231.70737 -164.80698 -231.62305 -164.61013 -231.62305 -164.2832 L -231.62305 -163.74219 L -227.44336 -163.74219 L -227.44336 -164.2832 C -227.44336 -165.53457 -227.98338 -166.63067 -228.97852 -167.41016 C -229.97313 -168.19452 -231.28421 -168.56641 -232.8418 -168.56641 z M -232.8418 -167.48438 C -231.454 -167.48438 -230.41248 -167.16309 -229.64844 -166.56055 L -229.64648 -166.56055 C -229.03528 -166.08243 -228.7575 -165.50211 -228.63867 -164.82422 L -230.75586 -164.82422 C -230.84778 -165.15441 -230.8848 -165.51257 -231.12695 -165.75586 C -231.54661 -166.18509 -232.15763 -166.35742 -232.85156 -166.35742 C -233.45494 -166.35742 -233.99765 -166.21957 -234.4082 -165.88086 C -234.79967 -165.5579 -235.0332 -165.06851 -235.0332 -164.5625 C -235.0332 -164.05032 -234.74303 -163.56371 -234.31055 -163.27539 L -234.30469 -163.27148 L -234.29883 -163.26758 C -233.86063 -162.99132 -233.26972 -162.812 -232.4668 -162.64844 L -232.46484 -162.64844 L -232.46094 -162.64844 C -231.70949 -162.50233 -231.08538 -162.33551 -230.59375 -162.15625 C -229.0915 -161.6052 -228.49219 -160.82335 -228.49219 -159.54297 C -228.49219 -158.63963 -228.83453 -157.98507 -229.63086 -157.4082 C -230.42871 -156.83728 -231.4759 -156.53516 -232.83008 -156.53516 C -233.73641 -156.53516 -234.51984 -156.69424 -235.19727 -157 L -235.19922 -157.00195 C -235.8769 -157.31869 -236.3833 -157.73115 -236.75391 -158.25 C -237.0036 -158.60415 -237.04143 -158.98284 -237.11914 -159.35742 L -235.1875 -159.35742 C -235.05973 -158.93076 -234.9677 -158.47473 -234.61914 -158.20508 C -234.12435 -157.82232 -233.48494 -157.65234 -232.76562 -157.65234 C -232.10492 -157.65234 -231.54269 -157.76712 -231.10547 -158.08984 L -231.10352 -158.08984 L -231.10352 -158.0918 C -230.6857 -158.40272 -230.42383 -158.8994 -230.42383 -159.41602 C -230.42383 -159.97368 -230.76814 -160.48922 -231.26367 -160.77148 C -231.73369 -161.05027 -232.36831 -161.24696 -233.22266 -161.42383 L -233.22461 -161.42383 C -234.54909 -161.70202 -235.50046 -162.12193 -236.08789 -162.62109 C -236.67566 -163.12055 -236.93359 -163.67009 -236.93359 -164.41211 C -236.93359 -165.29257 -236.60529 -165.96113 -235.85742 -166.56445 C -235.10979 -167.16879 -234.13094 -167.48438 -232.8418 -167.48438 z "
             style="color:#000000;font-style:normal;font-variant:normal;font-weight:bold;font-stretch:normal;font-size:medium;line-height:1.25;font-family:Roboto;-inkscape-font-specification:'Roboto Bold';font-variant-ligatures:normal;font-variant-position:normal;font-variant-caps:normal;font-variant-numeric:normal;font-variant-alternates:normal;font-variant-east-asian:normal;font-feature-settings:normal;font-variation-settings:normal;text-indent:0;text-align:start;text-decoration:none;text-decoration-line:none;text-decoration-style:solid;text-decoration-color:#000000;letter-spacing:0px;word-spacing:0px;text-transform:none;writing-mode:lr-tb;direction:ltr;text-orientation:mixed;dominant-baseline:auto;baseline-shift:baseline;text-anchor:start;white-space:normal;shape-padding:0;shape-margin:0;inline-size:0;clip-rule:nonzero;display:inline;overflow:visible;visibility:visible;isolation:auto;mix-blend-mode:normal;color-interpolation:sRGB;color-interpolation-filters:linearRGB;solid-color:#000000;solid-opacity:1;vector-effect:none;fill:#ee124e;fill-opacity:1;fill-rule:nonzero;stroke:none;stroke-width:1.08176;stroke-linecap:butt;stroke-linejoin:miter;stroke-miterlimit:4;stroke-dasharray:none;stroke-dashoffset:0;stroke-opacity:1.0;color-rendering:auto;image-rendering:auto;shape-rendering:auto;text-rendering:auto;enable-background:accumulate;stop-color:#000000;stop-opacity:1;" />
        </g>
      </g>
      <g
         style="font-style:normal;font-weight:normal;font-size:21.9463px;line-height:1.25;font-family:sans-serif;letter-spacing:0px;word-spacing:0px;fill:#ffffff;fill-opacity:1;stroke:#ee124e;stroke-width:1.08059;stroke-miterlimit:4;stroke-dasharray:none;stroke-opacity:1"
         id="text1128-7-6"
         transform="scale(1.0086797,0.99139499)"
         aria-label="Viz">
        <g
           style="opacity:1"
           id="g1715">
          <path
             id="path1719"
             d="M -239.36914 -164.08789 L -233.58398 -147.40625 L -229.46094 -147.40625 L -223.65234 -164.08789 L -228.39258 -164.08789 L -231.52539 -153.69141 L -234.64062 -164.08789 L -239.36914 -164.08789 z M -237.85156 -163.00781 L -235.44336 -163.00781 L -231.5293 -149.9375 L -231.00977 -151.6582 L -227.58984 -163.00781 L -225.17188 -163.00781 L -230.22852 -148.48633 L -232.81445 -148.48633 L -237.85156 -163.00781 z "
             style="color:#000000;font-style:normal;font-variant:normal;font-weight:bold;font-stretch:normal;font-size:medium;line-height:1.25;font-family:Roboto;-inkscape-font-specification:'Roboto Bold';font-variant-ligatures:normal;font-variant-position:normal;font-variant-caps:normal;font-variant-numeric:normal;font-variant-alternates:normal;font-variant-east-asian:normal;font-feature-settings:normal;font-variation-settings:normal;text-indent:0;text-align:start;text-decoration:none;text-decoration-line:none;text-decoration-style:solid;text-decoration-color:#000000;letter-spacing:0px;word-spacing:0px;text-transform:none;writing-mode:lr-tb;direction:ltr;text-orientation:mixed;dominant-baseline:auto;baseline-shift:baseline;text-anchor:start;white-space:normal;shape-padding:0;shape-margin:0;inline-size:0;clip-rule:nonzero;display:inline;overflow:visible;visibility:visible;isolation:auto;mix-blend-mode:normal;color-interpolation:sRGB;color-interpolation-filters:linearRGB;solid-color:#000000;solid-opacity:1;vector-effect:none;fill:#ee124e;fill-opacity:1;fill-rule:nonzero;stroke:none;stroke-width:1.08059;stroke-linecap:butt;stroke-linejoin:miter;stroke-miterlimit:4;stroke-dasharray:none;stroke-dashoffset:0;stroke-opacity:1.0;color-rendering:auto;image-rendering:auto;shape-rendering:auto;text-rendering:auto;enable-background:accumulate;stop-color:#000000;stop-opacity:1;" />
        </g>
        <g
           style="opacity:1"
           id="g1721">
          <path
             id="path1725"
             d="M -221.43164 -164.67773 C -222.0683 -164.67773 -222.65483 -164.48404 -223.08008 -164.07812 L -223.08398 -164.07617 L -223.08594 -164.07422 C -223.4928 -163.67682 -223.70898 -163.12452 -223.70898 -162.54102 C -223.70898 -161.94945 -223.48689 -161.38983 -223.07031 -160.99219 L -223.06836 -160.99023 L -223.06641 -160.98828 C -222.63839 -160.5888 -222.05677 -160.39258 -221.43164 -160.39258 C -220.80742 -160.39258 -220.23073 -160.58833 -219.80859 -160.99023 C -219.38515 -161.3865 -219.15625 -161.94762 -219.15625 -162.54102 C -219.15625 -163.12729 -219.37988 -163.68196 -219.79492 -164.07812 C -220.21869 -164.48263 -220.80077 -164.67773 -221.43164 -164.67773 z M -221.43164 -163.59766 C -221.00521 -163.59766 -220.74592 -163.49246 -220.54102 -163.29688 C -220.32738 -163.09295 -220.23633 -162.88346 -220.23633 -162.54102 C -220.23633 -162.19231 -220.3286 -161.98302 -220.54688 -161.7793 L -220.54883 -161.77734 L -220.55273 -161.77344 C -220.75912 -161.57643 -221.01375 -161.47461 -221.43164 -161.47461 C -221.84872 -161.47461 -222.11146 -161.57945 -222.32617 -161.7793 C -222.5349 -161.98039 -222.62891 -162.19221 -222.62891 -162.54102 C -222.62891 -162.88439 -222.53721 -163.09515 -222.33203 -163.29688 C -222.12877 -163.49033 -221.86574 -163.59766 -221.43164 -163.59766 z M -223.52734 -160.08008 L -223.52734 -147.40625 L -219.33789 -147.40625 L -219.33789 -147.94531 L -219.33789 -160.08008 L -223.52734 -160.08008 z M -222.44531 -159 L -220.41992 -159 L -220.41992 -148.48633 L -222.44531 -148.48633 L -222.44531 -159 z "
             style="color:#000000;font-style:normal;font-variant:normal;font-weight:bold;font-stretch:normal;font-size:medium;line-height:1.25;font-family:Roboto;-inkscape-font-specification:'Roboto Bold';font-variant-ligatures:normal;font-variant-position:normal;font-variant-caps:normal;font-variant-numeric:normal;font-variant-alternates:normal;font-variant-east-asian:normal;font-feature-settings:normal;font-variation-settings:normal;text-indent:0;text-align:start;text-decoration:none;text-decoration-line:none;text-decoration-style:solid;text-decoration-color:#000000;letter-spacing:0px;word-spacing:0px;text-transform:none;writing-mode:lr-tb;direction:ltr;text-orientation:mixed;dominant-baseline:auto;baseline-shift:baseline;text-anchor:start;white-space:normal;shape-padding:0;shape-margin:0;inline-size:0;clip-rule:nonzero;display:inline;overflow:visible;visibility:visible;isolation:auto;mix-blend-mode:normal;color-interpolation:sRGB;color-interpolation-filters:linearRGB;solid-color:#000000;solid-opacity:1;vector-effect:none;fill:#ee124e;fill-opacity:1;fill-rule:nonzero;stroke:none;stroke-width:1.08059;stroke-linecap:butt;stroke-linejoin:miter;stroke-miterlimit:4;stroke-dasharray:none;stroke-dashoffset:0;stroke-opacity:1.0;color-rendering:auto;image-rendering:auto;shape-rendering:auto;text-rendering:auto;enable-background:accumulate;stop-color:#000000;stop-opacity:1;" />
        </g>
        <g
           style="opacity:1"
           id="g1727">
          <path
             id="path1731"
             d="M -218.10352 -160.08008 L -218.10352 -156.49219 L -213.35742 -156.49219 L -218.26562 -150.01367 L -218.26562 -147.40625 L -207.5625 -147.40625 L -207.5625 -150.98242 L -212.68555 -150.98242 L -207.73242 -157.52734 L -207.73242 -160.08008 L -218.10352 -160.08008 z M -217.02344 -159 L -208.81445 -159 L -208.81445 -157.88867 L -214.85742 -149.90234 L -213.77148 -149.90234 L -208.64258 -149.90234 L -208.64258 -148.48633 L -217.18555 -148.48633 L -217.18555 -149.65039 L -211.18359 -157.57227 L -217.02344 -157.57227 L -217.02344 -159 z "
             style="color:#000000;font-style:normal;font-variant:normal;font-weight:bold;font-stretch:normal;font-size:medium;line-height:1.25;font-family:Roboto;-inkscape-font-specification:'Roboto Bold';font-variant-ligatures:normal;font-variant-position:normal;font-variant-caps:normal;font-variant-numeric:normal;font-variant-alternates:normal;font-variant-east-asian:normal;font-feature-settings:normal;font-variation-settings:normal;text-indent:0;text-align:start;text-decoration:none;text-decoration-line:none;text-decoration-style:solid;text-decoration-color:#000000;letter-spacing:0px;word-spacing:0px;text-transform:none;writing-mode:lr-tb;direction:ltr;text-orientation:mixed;dominant-baseline:auto;baseline-shift:baseline;text-anchor:start;white-space:normal;shape-padding:0;shape-margin:0;inline-size:0;clip-rule:nonzero;display:inline;overflow:visible;visibility:visible;isolation:auto;mix-blend-mode:normal;color-interpolation:sRGB;color-interpolation-filters:linearRGB;solid-color:#000000;solid-opacity:1;vector-effect:none;fill:#ee124e;fill-opacity:1;fill-rule:nonzero;stroke:none;stroke-width:1.08059;stroke-linecap:butt;stroke-linejoin:miter;stroke-miterlimit:4;stroke-dasharray:none;stroke-dashoffset:0;stroke-opacity:1.0;color-rendering:auto;image-rendering:auto;shape-rendering:auto;text-rendering:auto;enable-background:accumulate;stop-color:#000000;stop-opacity:1;" />
        </g>
      </g>
      <g
         id="g1976"
         style="opacity:1">
        <path
           style="color:#000000;font-style:normal;font-variant:normal;font-weight:normal;font-stretch:normal;font-size:medium;line-height:normal;font-family:sans-serif;font-variant-ligatures:normal;font-variant-position:normal;font-variant-caps:normal;font-variant-numeric:normal;font-variant-alternates:normal;font-variant-east-asian:normal;font-feature-settings:normal;font-variation-settings:normal;text-indent:0;text-align:start;text-decoration:none;text-decoration-line:none;text-decoration-style:solid;text-decoration-color:#000000;letter-spacing:normal;word-spacing:normal;text-transform:none;writing-mode:lr-tb;direction:ltr;text-orientation:mixed;dominant-baseline:auto;baseline-shift:baseline;text-anchor:start;white-space:normal;shape-padding:0;shape-margin:0;inline-size:0;clip-rule:nonzero;display:inline;overflow:visible;visibility:visible;isolation:auto;mix-blend-mode:normal;color-interpolation:sRGB;color-interpolation-filters:linearRGB;solid-color:#000000;solid-opacity:1;vector-effect:none;fill:#ee124e;fill-opacity:1;fill-rule:evenodd;stroke:none;stroke-width:0.649648;stroke-linecap:round;stroke-linejoin:miter;stroke-miterlimit:4;stroke-dasharray:none;stroke-dashoffset:0;stroke-opacity:1.0;color-rendering:auto;image-rendering:auto;shape-rendering:auto;text-rendering:auto;enable-background:accumulate;stop-color:#000000;stop-opacity:1;"
           d="M -251.34961 -162.77148 C -253.04883 -162.91951 -254.8725 -162.318 -255.98047 -160.94141 L -255.98047 -160.93945 L -255.98242 -160.93945 C -257.17603 -159.42272 -257.43452 -157.36116 -256.9707 -155.55078 C -256.33317 -152.7114 -254.56492 -150.21487 -252.27148 -148.48438 L -252.26953 -148.48242 C -251.53832 -147.94465 -250.77564 -147.52612 -250.22461 -146.92969 C -249.97281 -146.54756 -249.83508 -146.08049 -249.68945 -145.57422 C -249.54269 -145.06397 -249.37869 -144.51784 -249.00781 -144.03516 C -248.90645 -143.88054 -248.76958 -143.74507 -248.5918 -143.65625 C -248.40878 -143.56482 -248.17408 -143.5275 -247.94727 -143.60352 L -247.93945 -143.60742 L -247.93164 -143.60938 C -247.30944 -143.85455 -247.09298 -144.47909 -246.9082 -144.88086 C -246.63474 -145.48418 -246.38582 -146.06377 -245.88867 -146.25391 C -245.36071 -146.43685 -244.66555 -146.42159 -244 -146.78906 C -242.28843 -147.56791 -241.11858 -149.33732 -241.07031 -151.2168 C -240.88831 -153.39537 -241.6726 -155.52371 -242.8418 -157.28516 L -242.8418 -157.28711 C -243.38719 -158.11701 -244.02805 -158.87438 -244.71484 -159.57617 L -244.71875 -159.58008 L -244.72461 -159.58594 C -246.52081 -161.28169 -248.82813 -162.54628 -251.34766 -162.77148 L -251.34961 -162.77148 z M -251.40625 -162.125 C -249.07063 -161.91623 -246.88786 -160.73121 -245.17773 -159.11914 C -244.51356 -158.44026 -243.90119 -157.71571 -243.38477 -156.92969 L -243.38281 -156.92773 C -242.27015 -155.25196 -241.54653 -153.25251 -241.7168 -151.25977 L -241.7168 -151.24805 L -241.7168 -151.23828 C -241.75632 -149.61472 -242.79956 -148.03852 -244.2793 -147.37109 L -244.29102 -147.36523 L -244.30469 -147.35938 C -244.77799 -147.09386 -245.42522 -147.10444 -246.10938 -146.86523 L -246.11328 -146.86328 L -246.11719 -146.86328 C -246.93629 -146.55256 -247.23678 -145.7311 -247.5 -145.15039 C -247.69585 -144.72452 -247.87326 -144.34259 -248.16406 -144.22266 C -248.20985 -144.20953 -248.24781 -144.20889 -248.30273 -144.23633 C -248.36157 -144.26572 -248.42714 -144.32803 -248.4707 -144.39648 L -248.47852 -144.4082 L -248.48828 -144.42188 C -248.77253 -144.78781 -248.9205 -145.24666 -249.06641 -145.75391 C -249.21231 -146.26115 -249.35561 -146.81317 -249.69336 -147.31445 L -249.70508 -147.33398 L -249.72266 -147.35156 C -250.37361 -148.06646 -251.19421 -148.49925 -251.88086 -149.00391 L -251.88281 -149.00586 C -254.06446 -150.65276 -255.74189 -153.02905 -256.33984 -155.69727 L -256.33984 -155.70117 L -256.3418 -155.70703 C -256.7628 -157.34448 -256.51699 -159.20594 -255.47461 -160.5332 C -254.52918 -161.70785 -252.91187 -162.25616 -251.40625 -162.125 z "
           id="path1980" />
      </g>
      <path
         style="fill:#ee124e;fill-opacity:1;fill-rule:evenodd;stroke:#ee124e;stroke-width:0.25943;stroke-linecap:round;stroke-miterlimit:4;stroke-dasharray:none;stroke-opacity:1"
         d="m -279.89966,75.972351 c 0,1.399742 -1.63151,2.534457 -3.64407,2.534459 -2.01257,2e-6 -3.64408,-1.134714 -3.64408,-2.534459 0,-0.363625 0.1101,-0.709364 0.30839,-1.021971 0.33716,0.212753 1.80925,1.031633 2.16529,0.799624 0.3568,-0.232495 0.0113,-1.817636 -0.0708,-2.161295 0.3874,-0.0976 0.80537,-0.150817 1.24122,-0.150817 2.01256,2e-6 3.64407,1.134717 3.64407,2.534459 z"
         transform="rotate(46.742842)"
         id="ellipse1350-0"
         sodipodi:nodetypes="ssscscsss" />
      <g
         id="g1953"
         style="opacity:1">
        <path
           style="color:#000000;font-style:normal;font-variant:normal;font-weight:normal;font-stretch:normal;font-size:medium;line-height:normal;font-family:sans-serif;font-variant-ligatures:normal;font-variant-position:normal;font-variant-caps:normal;font-variant-numeric:normal;font-variant-alternates:normal;font-variant-east-asian:normal;font-feature-settings:normal;font-variation-settings:normal;text-indent:0;text-align:start;text-decoration:none;text-decoration-line:none;text-decoration-style:solid;text-decoration-color:#000000;letter-spacing:normal;word-spacing:normal;text-transform:none;writing-mode:lr-tb;direction:ltr;text-orientation:mixed;dominant-baseline:auto;baseline-shift:baseline;text-anchor:start;white-space:normal;shape-padding:0;shape-margin:0;inline-size:0;clip-rule:nonzero;display:inline;overflow:visible;visibility:visible;isolation:auto;mix-blend-mode:normal;color-interpolation:sRGB;color-interpolation-filters:linearRGB;solid-color:#000000;solid-opacity:1;vector-effect:none;fill:#ee124e;fill-opacity:1;fill-rule:nonzero;stroke:none;stroke-width:0.308422px;stroke-linecap:butt;stroke-linejoin:miter;stroke-miterlimit:4;stroke-dasharray:none;stroke-dashoffset:0;stroke-opacity:1.0;color-rendering:auto;image-rendering:auto;shape-rendering:auto;text-rendering:auto;enable-background:accumulate;stop-color:#000000;stop-opacity:1;"
           d="M -248.93555 -161.13477 C -249.70798 -161.28377 -250.59028 -161.11644 -251.2168 -160.60938 C -251.57079 -160.32288 -251.6678 -159.82386 -251.64844 -159.27148 C -251.62908 -158.71911 -251.49041 -158.0932 -251.31641 -157.49805 C -250.96839 -156.30774 -250.47266 -155.24219 -250.47266 -155.24219 L -250.38477 -155.05273 L -250.23047 -155.19336 C -250.23047 -155.19336 -249.44683 -155.90292 -248.69531 -156.80859 C -248.31955 -157.26143 -247.95121 -157.76283 -247.68945 -158.25781 C -247.4277 -158.7528 -247.26568 -159.24365 -247.3418 -159.68555 C -247.48156 -160.49694 -248.16311 -160.98577 -248.93555 -161.13477 z M -248.99414 -160.83203 C -248.30847 -160.69977 -247.75962 -160.30092 -247.64453 -159.63281 C -247.58819 -159.30576 -247.715 -158.86742 -247.96094 -158.40234 C -248.20688 -157.93727 -248.56424 -157.44862 -248.93164 -157.00586 C -249.58748 -156.21549 -250.13608 -155.72036 -250.27539 -155.5918 C -250.35666 -155.77073 -250.71338 -156.53684 -251.01953 -157.58398 C -251.18943 -158.16507 -251.32203 -158.77474 -251.33984 -159.2832 C -251.35766 -159.79166 -251.25811 -160.17921 -251.02344 -160.36914 C -250.48298 -160.80656 -249.67981 -160.96429 -248.99414 -160.83203 z "
           id="path1957" />
      </g>
    </g>
  </g>
</svg>
